first trial																																					
nRows=38																																					
nColumns=38																																					
																																					
# SIMM Motion File Header:																																					
name MVN-013																																					
datacolumns 38																																					
datarows 38																																					
otherdata 1																																					
range 42.214 42.831																																					
endheader																																					
time	pelvis_tilt	pelvis_list	pelvis_rotation	pelvis_tx	pelvis_ty	pelvis_tz	hip_flexion_r	hip_adduction_r	hip_rotation_r	knee_angle_r	ankle_angle_r	subtalar_angle_r	mtp_angle_r	hip_flexion_l	hip_adduction_l	hip_rotation_l	knee_angle_l	ankle_angle_l	subtalar_angle_l	mtp_angle_l	lumbar_extension	lumbar_bending	lumbar_rotation	arm_flex_r	arm_add_r	arm_rot_r	elbow_flex_r	pro_sup_r	wrist_flex_r	wrist_dev_r	arm_flex_l	arm_add_l	arm_rot_l	elbow_flex_l	pro_sup_l	wrist_flex_l	wrist_dev_l
42.214	25.6253	0.015	86.9494	-0.2518	0.7785	0.4484	24.0305	-8.531	5.6432	29.319	-21.2964	1.4082	0	28.0736	-3.3966	2.2173	44.4794	-10.9628	3.1264	0	-6.6148	0.1052	-0.0648	40.7906	-16.532	4.2618	50.102	14.7591	-2.4766	-16.0752	20.1791	-24.9414	-3.0356	34.9789	108.0113	4.5636	12.4986
42.231	25.6171	0.015	86.9507	-0.2518	0.7785	0.4484	24.0394	-8.5315	5.6403	29.3203	-21.2959	1.409	0	28.0824	-3.3971	2.2158	44.4788	-10.9647	3.1268	0	-6.627	0.1076	-0.0614	40.7643	-16.5128	4.2586	49.7517	14.821	-2.5652	-16.1064	20.2046	-24.9332	-3.0281	35.0143	108.015	4.563	12.5055
42.247	25.6077	0.0152	86.9516	-0.2518	0.7785	0.4484	24.0492	-8.532	5.6362	29.3216	-21.2951	1.4106	0	28.0918	-3.3975	2.2155	44.478	-10.966	3.1272	0	-6.6392	0.1098	-0.0565	40.7404	-16.4866	4.2602	49.4123	14.8735	-2.66	-16.1413	20.2346	-24.9224	-3.0201	35.0506	108.0204	4.5627	12.512
42.264	25.5973	0.0155	86.9525	-0.2518	0.7785	0.4484	24.0592	-8.5325	5.6301	29.3226	-21.294	1.4134	0	28.1008	-3.3978	2.2175	44.4761	-10.9663	3.1279	0	-6.651	0.1116	-0.0494	40.7192	-16.4495	4.2699	49.0821	14.9156	-2.7639	-16.178	20.271	-24.9079	-3.0137	35.0848	108.0313	4.5628	12.5176
42.28	25.5856	0.0159	86.9531	-0.2518	0.7785	0.4484	24.0702	-8.5329	5.6229	29.3238	-21.2926	1.4168	0	28.1105	-3.398	2.2206	44.474	-10.966	3.1286	0	-6.6627	0.1132	-0.0408	40.7003	-16.4054	4.2845	48.763	14.9477	-2.874	-16.2184	20.312	-24.8908	-3.0068	35.1198	108.0439	4.5633	12.523
42.297	25.5727	0.0165	86.9537	-0.2517	0.7785	0.4484	24.0826	-8.533	5.6189	29.3257	-21.2901	1.4186	0	28.1219	-3.3979	2.2236	44.4731	-10.9651	3.1284	0	-6.6745	0.1146	-0.0329	40.6768	-16.358	4.2936	48.4582	14.978	-2.9851	-16.2617	20.3536	-24.8746	-2.9926	35.1549	108.0482	4.5628	12.5274
42.314	25.5576	0.0175	86.9535	-0.2517	0.7785	0.4484	24.0978	-8.5325	5.6212	29.3292	-21.2861	1.417	0	28.1365	-3.3974	2.2262	44.4748	-10.9631	3.1262	0	-6.6853	0.1157	-0.0262	40.644	-16.3067	4.292	48.1741	15.0091	-3.1033	-16.3084	20.3952	-24.8603	-2.964	35.1893	108.0366	4.5611	12.5303
42.331	25.5411	0.0186	86.9534	-0.2517	0.7785	0.4484	24.1144	-8.5318	5.6268	29.3334	-21.281	1.4137	0	28.1529	-3.3967	2.2286	44.4776	-10.9605	3.1232	0	-6.6962	0.1165	-0.0201	40.6066	-16.252	4.2848	47.9041	15.0387	-3.2227	-16.3581	20.4374	-24.847	-2.928	35.2238	108.0167	4.5584	12.5323
42.347	25.5262	0.0192	86.9541	-0.2517	0.7785	0.4483	24.1293	-8.5314	5.6315	29.3373	-21.2763	1.4112	0	28.1678	-3.3961	2.2295	44.4798	-10.9586	3.1217	0	-6.7092	0.1176	-0.0147	40.5721	-16.1987	4.2771	47.6323	15.068	-3.32	-16.4085	20.4781	-24.8357	-2.8983	35.2599	108.0001	4.5549	12.5344
42.364	25.5136	0.0189	86.9565	-0.2517	0.7785	0.4483	24.1412	-8.5315	5.6339	29.3404	-21.2723	1.4103	0	28.1797	-3.3958	2.2279	44.4803	-10.9581	3.1234	0	-6.7261	0.1199	-0.0101	40.543	-16.1495	4.2685	47.3576	15.0954	-3.3761	-16.4599	20.5163	-24.8272	-2.8842	35.297	107.9937	4.5505	12.5366
42.381	25.5024	0.0182	86.9597	-0.2517	0.7785	0.4483	24.1514	-8.532	5.6353	29.343	-21.2687	1.4102	0	28.1901	-3.3955	2.2249	44.48	-10.9583	3.1267	0	-6.7452	0.1223	-0.0062	40.5167	-16.1018	4.2593	47.0812	15.1224	-3.4102	-16.5117	20.5531	-24.8206	-2.8765	35.3357	107.9906	4.5453	12.5389
42.397	25.4916	0.0169	86.9634	-0.2517	0.7785	0.4483	24.1607	-8.5327	5.6358	29.3454	-21.265	1.4102	0	28.2	-3.3955	2.2225	44.4799	-10.9585	3.1297	0	-6.7641	0.1226	-0.0029	40.493	-16.0529	4.2556	46.7903	15.1557	-3.4563	-16.561	20.5897	-24.8147	-2.8607	35.3801	107.9815	4.5399	12.5424
42.414	25.4814	0.0149	86.9677	-0.2517	0.7785	0.4483	24.1688	-8.5337	5.6347	29.3472	-21.261	1.4103	0	28.2093	-3.3958	2.2215	44.48	-10.9584	3.132	0	-6.7819	0.1192	-0.0004	40.472	-16.0002	4.2617	46.4812	15.1947	-3.5305	-16.609	20.627	-24.8081	-2.8278	35.4318	107.9607	4.534	12.5481
42.431	25.4716	0.0123	86.9725	-0.2517	0.7786	0.4482	24.176	-8.5349	5.6327	29.3487	-21.2571	1.4106	0	28.2181	-3.3963	2.2211	44.4802	-10.9581	3.134	0	-6.7996	0.1136	0.0015	40.4536	-15.9463	4.2733	46.1575	15.2399	-3.6169	-16.6547	20.6642	-24.8021	-2.7869	35.4893	107.934	4.5279	12.5552
42.447	25.4611	0.0096	86.9768	-0.2517	0.7786	0.4482	24.1839	-8.5358	5.6313	29.3501	-21.2534	1.4108	0	28.2276	-3.3966	2.2214	44.4809	-10.9574	3.1356	0	-6.8171	0.1077	0.0035	40.4365	-15.8962	4.2838	45.8175	15.2989	-3.7019	-16.6921	20.6998	-24.7994	-2.7508	35.5515	107.9096	4.5227	12.5618
42.464	25.4502	0.0064	86.9806	-0.2517	0.7786	0.4482	24.1921	-8.5366	5.6313	29.3511	-21.2502	1.4108	0	28.2376	-3.3964	2.2222	44.4821	-10.9557	3.1365	0	-6.8336	0.1024	0.0048	40.4242	-15.8512	4.2939	45.4558	15.3734	-3.7774	-16.7182	20.7331	-24.8019	-2.7256	35.6176	107.8902	4.519	12.5673
42.481	25.4388	0.003	86.9841	-0.2517	0.7786	0.4482	24.201	-8.5371	5.6319	29.3519	-21.2472	1.4108	0	28.2484	-3.3961	2.2237	44.4839	-10.9534	3.1369	0	-6.8499	0.0968	0.0062	40.4132	-15.8101	4.3029	45.0777	15.4618	-3.8517	-16.7363	20.7648	-24.8076	-2.7052	35.6884	107.8732	4.5163	12.5723
42.497	25.4255	0.0007	86.9859	-0.2517	0.7786	0.4481	24.2131	-8.5369	5.6325	29.3534	-21.2443	1.4109	0	28.2619	-3.3966	2.2257	44.486	-10.9515	3.1373	0	-6.8687	0.0902	0.0111	40.3929	-15.7734	4.3019	44.6966	15.5669	-3.9361	-16.7503	20.7956	-24.8122	-2.6843	35.7663	107.8586	4.5145	12.5779
42.514	25.4099	-0.0002	86.9859	-0.2516	0.7786	0.4481	24.2297	-8.5354	5.633	29.3559	-21.2413	1.4111	0	28.2791	-3.3987	2.2286	44.4888	-10.9504	3.1379	0	-6.8922	0.0821	0.0214	40.3562	-15.7443	4.2839	44.3182	15.6944	-4.041	-16.763	20.8262	-24.8137	-2.657	35.8518	107.8448	4.5135	12.5844
42.531	25.3924	-0.0001	86.9844	-0.2516	0.7786	0.4482	24.2495	-8.533	5.6334	29.359	-21.2384	1.4113	0	28.299	-3.4017	2.2319	44.492	-10.9496	3.1383	0	-6.9182	0.0729	0.0352	40.31	-15.7196	4.2558	43.937	15.8384	-4.1562	-16.7716	20.8559	-24.8141	-2.6291	35.9443	107.8334	4.5134	12.5915
42.547	25.3727	0.0004	86.9825	-0.2516	0.7786	0.4482	24.2713	-8.5313	5.6333	29.3623	-21.2354	1.4115	0	28.3207	-3.404	2.2347	44.4954	-10.9478	3.1385	0	-6.9426	0.0637	0.0493	40.2649	-15.6912	4.2303	43.549	15.9848	-4.2615	-16.7714	20.8828	-24.8152	-2.6128	36.0436	107.83	4.514	12.5989
42.564	25.3491	0.0011	86.9809	-0.2516	0.7786	0.4482	24.2963	-8.5305	5.6319	29.3659	-21.2319	1.4115	0	28.3452	-3.4053	2.237	44.4987	-10.9444	3.1382	0	-6.964	0.0545	0.0637	40.2237	-15.6558	4.2124	43.1538	16.1289	-4.3445	-16.7568	20.9061	-24.8167	-2.6194	36.1561	107.8431	4.5156	12.6077
42.581	25.3233	0.0022	86.9789	-0.2516	0.7786	0.4481	24.3234	-8.5302	5.6301	29.3697	-21.2284	1.4116	0	28.3714	-3.406	2.2387	44.5022	-10.9401	3.1375	0	-6.9838	0.0453	0.0784	40.1836	-15.6166	4.1971	42.7521	16.275	-4.4176	-16.7331	20.9265	-24.8188	-2.6375	36.2754	107.8641	4.518	12.6168
42.597	25.2992	0.0035	86.9761	-0.2516	0.7786	0.4481	24.3481	-8.5305	5.6299	29.3724	-21.2253	1.4124	0	28.3951	-3.4061	2.2384	44.5054	-10.9355	3.1366	0	-7.0028	0.037	0.0902	40.1465	-15.5756	4.1814	42.3416	16.4227	-4.4978	-16.712	20.945	-24.8242	-2.6458	36.3821	107.8732	4.5205	12.623
42.614	25.2779	0.0054	86.9712	-0.2517	0.7786	0.4481	24.3689	-8.5315	5.632	29.3734	-21.2227	1.4149	0	28.4145	-3.4053	2.2342	44.5082	-10.9304	3.1351	0	-7.0205	0.0301	0.0965	40.1151	-15.5325	4.1619	41.9137	16.5777	-4.591	-16.6944	20.9611	-24.8357	-2.6338	36.4682	107.8616	4.5227	12.6242
42.631	25.2584	0.0076	86.9654	-0.2517	0.7786	0.4481	24.3874	-8.5329	5.6357	29.3734	-21.2206	1.4181	0	28.4313	-3.404	2.228	44.5107	-10.9251	3.1334	0	-7.0373	0.0242	0.0999	40.0868	-15.4874	4.142	41.4771	16.734	-4.6914	-16.6798	20.9753	-24.8507	-2.612	36.5416	107.8382	4.525	12.6225
42.647	25.2417	0.0086	86.9613	-0.2517	0.7786	0.448	24.4041	-8.5341	5.6406	29.3734	-21.2197	1.4201	0	28.4474	-3.4025	2.2244	44.5138	-10.9213	3.1322	0	-7.0554	0.019	0.1045	40.0554	-15.443	4.1296	41.0553	16.8738	-4.7981	-16.6777	20.9893	-24.8636	-2.5897	36.6066	107.809	4.5275	12.6208
42.664	25.2278	0.0081	86.9601	-0.2518	0.7786	0.448	24.4192	-8.5343	5.6476	29.3737	-21.2207	1.4198	0	28.4639	-3.4011	2.2261	44.518	-10.9199	3.1318	0	-7.0757	0.0142	0.1121	40.016	-15.3988	4.1311	40.6553	16.9881	-4.9197	-16.6932	21.0041	-24.8729	-2.568	36.6613	107.773	4.5317	12.6188
42.681	25.2169	0.0066	86.9606	-0.2518	0.7785	0.4481	24.4325	-8.5342	5.6558	29.3739	-21.2229	1.4182	0	28.4796	-3.3995	2.2304	44.5229	-10.9201	3.132	0	-7.0972	0.01	0.1208	39.9735	-15.3552	4.1401	40.2699	17.0856	-5.0476	-16.721	21.0187	-24.8803	-2.5459	36.7076	107.7312	4.5362	12.6169
42.697	25.2092	0.0042	86.9622	-0.2518	0.7785	0.4481	24.4429	-8.5348	5.6617	29.3743	-21.225	1.4163	0	28.4926	-3.3983	2.2334	44.5275	-10.9205	3.1327	0	-7.1188	0.0068	0.1292	39.9364	-15.3154	4.1459	39.9012	17.175	-5.1548	-16.7548	21.0325	-24.8851	-2.5293	36.7552	107.6931	4.5372	12.6192
42.714	25.2054	0.0013	86.9652	-0.2519	0.7785	0.4481	24.4505	-8.5363	5.6638	29.3753	-21.2262	1.4137	0	28.5028	-3.3977	2.2337	44.5319	-10.9208	3.1341	0	-7.1416	0.0055	0.1359	39.9096	-15.2835	4.1419	39.551	17.2614	-5.2247	-16.7934	21.0446	-24.8873	-2.5241	36.8136	107.6607	4.5314	12.6298
42.731	25.2049	-0.0025	86.9691	-0.2519	0.7784	0.4482	24.4552	-8.5385	5.6637	29.3764	-21.2272	1.4108	0	28.5102	-3.3974	2.2327	44.5362	-10.9214	3.1362	0	-7.1646	0.0052	0.1422	39.8883	-15.2554	4.1346	39.2172	17.3402	-5.2738	-16.8374	21.0559	-24.887	-2.5245	36.8734	107.6319	4.5222	12.6447
42.747	25.2069	-0.0062	86.973	-0.252	0.7784	0.4482	24.4558	-8.5411	5.6622	29.3759	-21.2292	1.4098	0	28.5136	-3.397	2.2313	44.539	-10.9228	3.1385	0	-7.1834	0.0029	0.1503	39.8666	-15.2217	4.133	38.8948	17.4057	-5.3255	-16.8824	21.0692	-24.8838	-2.5192	36.9159	107.61	4.5155	12.6549
42.764	25.2122	-0.0093	86.9762	-0.252	0.7784	0.4483	24.4504	-8.5446	5.6593	29.3724	-21.2329	1.4126	0	28.5112	-3.3966	2.2289	44.5393	-10.9256	3.1416	0	-7.196	-0.0033	0.1618	39.8416	-15.176	4.1405	38.5784	17.4569	-5.3884	-16.9262	21.0861	-24.8766	-2.5032	36.9308	107.6	4.5138	12.6565
42.781	25.2202	-0.0123	86.9794	-0.252	0.7784	0.4483	24.4409	-8.5485	5.6552	29.3673	-21.2375	1.4173	0	28.5047	-3.3961	2.2261	44.5383	-10.9291	3.1449	0	-7.2045	-0.0113	0.1751	39.8163	-15.1248	4.1537	38.2734	17.495	-5.454	-16.9711	21.1049	-24.8665	-2.4815	36.9283	107.597	4.5145	12.6534
42.797	25.2283	-0.015	86.9825	-0.252	0.7784	0.4483	24.4318	-8.5517	5.6513	29.3629	-21.2419	1.4206	0	28.4983	-3.3948	2.2254	44.5377	-10.9319	3.1468	0	-7.2103	-0.018	0.1872	39.7934	-15.0783	4.1721	37.9914	17.5164	-5.5203	-17.0201	21.1239	-24.8568	-2.4581	36.9202	107.5893	4.5156	12.6499
42.814	25.2351	-0.0173	86.985	-0.2521	0.7783	0.4483	24.4253	-8.5538	5.6483	29.3605	-21.2457	1.4207	0	28.4941	-3.3918	2.2285	44.5389	-10.9329	3.1463	0	-7.2127	-0.0215	0.1966	39.7752	-15.0407	4.1984	37.7372	17.5158	-5.5826	-17.0747	21.1438	-24.8484	-2.4316	36.9076	107.5697	4.5167	12.6462
42.831	25.2421	-0.0193	86.9874	-0.2521	0.7783	0.4483	24.4192	-8.5552	5.6457	29.3589	-21.2494	1.4194	0	28.4901	-3.388	2.2336	44.5406	-10.9333	3.1443	0	-7.2123	-0.0237	0.2048	39.7594	-15.0079	4.2299	37.5061	17.4985	-5.6457	-17.1334	21.1639	-24.8403	-2.4034	36.8893	107.5454	4.5182	12.6421
